<svg width="39" height="48" viewBox="0 0 39 48" fill="none" xmlns="http://www.w3.org/2000/svg">
    <path d="M24.0647 18.1079V19.2731H24.8147H25.5647C25.5647 17.6477 26.7992 16.4039 28.2366 16.4039H28.2446C29.6801 16.4039 30.9152 17.6476 30.9152 19.2731V21.1087H31.6652H32.4152C32.4152 19.4837 33.6502 18.2399 35.0857 18.2399H35.1618C36.5954 18.2399 37.8288 19.4787 37.8324 21.1003C37.8438 25.8062 37.8417 27.4511 37.8363 31.6581L37.8362 31.7159C37.834 33.3333 37.8314 35.3291 37.8288 38.0174C37.8239 43.1186 33.9243 47.1771 29.2032 47.1771H18.0942C14.9884 47.1771 12.1018 45.3972 10.5679 42.4881L0.948975 24.2347L1.50997 23.7751L1.52469 23.763L1.53877 23.7503C3.36109 22.096 6.09299 22.2924 7.68779 24.2099L10.4598 27.5431L11.785 29.1366L11.7864 27.064L11.8023 4.1343C11.8034 2.51 13.0385 1.26672 14.4734 1.26672C15.9092 1.26672 17.1453 2.5115 17.1453 4.1368V18.014L18.6451 18.0313C18.6817 16.4428 19.8996 15.2387 21.3136 15.2387H21.3937C22.8296 15.2387 24.0647 16.4828 24.0647 18.1079Z" fill="white"/>
    <path d="M37.8362 31.7159C37.834 33.3333 37.8314 35.3291 37.8288 38.0174C37.8239 43.1186 33.9243 47.1771 29.2032 47.1771H18.0942C14.9884 47.1771 12.1018 45.3972 10.5679 42.4881L0.948975 24.2347L1.50997 23.7751L1.52469 23.763L1.53877 23.7503C3.36109 22.096 6.09299 22.2924 7.68779 24.2099L10.4598 27.5431L11.785 29.1366L11.7864 27.064L11.8023 4.1343C11.8034 2.51 13.0385 1.26672 14.4734 1.26672C15.9092 1.26672 17.1453 2.5115 17.1453 4.1368V18.014L18.6451 18.0313C18.6817 16.4428 19.8996 15.2387 21.3136 15.2387H21.3937C22.8296 15.2387 24.0647 16.4828 24.0647 18.1079V19.2731H24.8147H25.5647C25.5647 17.6477 26.7992 16.4039 28.2366 16.4039H28.2446C29.6801 16.4039 30.9152 17.6476 30.9152 19.2731V21.1087H31.6652H32.4152C32.4152 19.4837 33.6502 18.2399 35.0857 18.2399H35.1618C36.5954 18.2399 37.8288 19.4787 37.8324 21.1003C37.8438 25.8062 37.8417 27.4511 37.8363 31.6581M37.8362 31.7159L37.8363 31.6581M37.8362 31.7159C37.8362 31.6966 37.8363 31.6773 37.8363 31.6581" stroke="#222222" stroke-width="1.5"/>
</svg>