<svg width="49" height="58" viewBox="0 0 49 58" fill="none" xmlns="http://www.w3.org/2000/svg">
    <g filter="url(#filter0_dd)">
        <path d="M39.6651 28.848C39.6651 26.8242 41.1968 25.1843 43.0857 25.1843H43.1618C45.0476 25.1843 46.5779 26.8176 46.5823 28.8379C46.5983 35.4473 46.5881 36.096 46.5788 45.9677C46.5735 51.5107 42.3774 56 37.2032 56H26.0942C22.6949 56 19.5608 54.0279 17.9045 50.8475L8 31.8185L9.03466 30.9603C11.1774 28.9909 14.4003 29.2332 16.2645 31.5023L19.0364 34.8769L19.0523 11.662C19.0537 9.6391 20.5853 8 22.4734 8H22.4742C24.3636 8 25.8953 9.64131 25.8953 11.6651V25.7149C25.9404 23.734 27.4539 22.1457 29.3136 22.1457H29.3937C31.283 22.1457 32.8147 23.7861 32.8147 25.8099V26.9896C32.8147 24.9654 34.3459 23.3254 36.2366 23.3254H36.2445C38.1335 23.3254 39.6651 24.9654 39.6651 26.9896V28.848Z" fill="white"/>
        <path d="M32.3154 25.8099V26.9896H32.8147H33.314C33.314 25.2084 34.6533 23.8247 36.2366 23.8247H36.2445C37.826 23.8247 39.1658 25.2083 39.1658 26.9896V28.848H39.6651H40.1644C40.1644 27.0672 41.5042 25.6836 43.0857 25.6836H43.1618C44.7409 25.6836 46.0792 27.0616 46.083 28.839V28.8391C46.0946 33.626 46.0924 35.285 46.0868 39.5885C46.0847 41.2259 46.0821 43.2462 46.0795 45.9673C46.0744 51.2675 42.0701 55.5007 37.2032 55.5007H26.0942C22.8935 55.5007 19.9236 53.6436 18.3473 50.6168L8.62897 31.9455L9.35343 31.3445L9.3632 31.3364L9.37254 31.3279C11.3007 29.5557 14.1934 29.7678 15.8787 31.8193C15.8787 31.8193 15.8787 31.8193 15.8787 31.8193L18.6506 35.1939L19.5348 36.2703L19.5357 34.8773L19.5516 11.6623V11.6623C19.5528 9.88223 20.8927 8.49929 22.4734 8.49929H22.4742C24.056 8.49929 25.396 9.88406 25.396 11.6651V25.7149L26.3944 25.7262C26.4341 23.9847 27.7561 22.645 29.3136 22.645H29.3937C30.9755 22.645 32.3154 24.0291 32.3154 25.8099Z" stroke="#DDDDDD" stroke-width="0.998589"/>
    </g>
    <defs>
        <filter id="filter0_dd" x="0" y="0" width="48.5907" height="58" filterUnits="userSpaceOnUse" color-interpolation-filters="sRGB">
            <feFlood flood-opacity="0" result="BackgroundImageFix"/>
            <feColorMatrix in="SourceAlpha" type="matrix" values="0 0 0 0 0 0 0 0 0 0 0 0 0 0 0 0 0 0 127 0"/>
            <feOffset dx="-2" dy="-1"/>
            <feColorMatrix type="matrix" values="0 0 0 0 0.866667 0 0 0 0 0.866667 0 0 0 0 0.866667 0 0 0 1 0"/>
            <feBlend mode="normal" in2="BackgroundImageFix" result="effect1_dropShadow"/>
            <feColorMatrix in="SourceAlpha" type="matrix" values="0 0 0 0 0 0 0 0 0 0 0 0 0 0 0 0 0 0 127 0"/>
            <feOffset dx="-3" dy="-3"/>
            <feGaussianBlur stdDeviation="2.5"/>
            <feColorMatrix type="matrix" values="0 0 0 0 0 0 0 0 0 0 0 0 0 0 0 0 0 0 0.3 0"/>
            <feBlend mode="normal" in2="effect1_dropShadow" result="effect2_dropShadow"/>
            <feBlend mode="normal" in="SourceGraphic" in2="effect2_dropShadow" result="shape"/>
        </filter>
    </defs>
</svg>